# Blender 4.1.1
# www.blender.org
mtllib Hole2.mtl
o Cube
v 1.000000 1.000000 -1.000000
v 1.000000 -1.000000 -1.000000
v 1.000000 1.000000 1.000000
v 1.000000 -1.000000 1.000000
v -1.000000 1.000000 -1.000000
v -1.000000 -1.000000 -1.000000
v -1.000000 1.000000 1.000000
v -1.000000 -1.000000 1.000000
v -0.944482 1.000000 0.000000
v -0.926334 1.000000 -0.184259
v -0.926334 1.000000 0.184259
v -0.785308 1.000000 0.524726
v -0.785308 1.000000 -0.524726
v -0.667849 1.000000 0.667849
v -0.872587 1.000000 0.361438
v -0.872587 1.000000 -0.361438
v -0.524726 1.000000 -0.785308
v -0.184259 1.000000 -0.926334
v -0.361438 1.000000 -0.872587
v 0.184259 1.000000 -0.926334
v 0.667849 1.000000 -0.667849
v 0.524726 1.000000 -0.785308
v 0.361438 1.000000 -0.872587
v 0.000000 1.000000 -0.944482
v -0.667849 1.000000 -0.667849
v -0.524726 1.000000 0.785308
v -0.184259 1.000000 0.926334
v -0.361438 1.000000 0.872587
v 0.184259 1.000000 0.926334
v 0.524726 1.000000 0.785308
v 0.361438 1.000000 0.872587
v 0.000000 1.000000 0.944482
v 0.785308 1.000000 0.524726
v 0.785308 1.000000 -0.524726
v 0.944482 1.000000 0.000000
v 0.926334 1.000000 0.184259
v 0.926334 1.000000 -0.184259
v 0.872587 1.000000 0.361438
v 0.872587 1.000000 -0.361438
v 0.667849 1.000000 0.667849
v -0.667849 -1.000000 -0.667849
v -0.524726 -1.000000 -0.785308
v -0.184259 -1.000000 -0.926334
v -0.361438 -1.000000 -0.872587
v 0.184259 -1.000000 -0.926334
v 0.524726 -1.000000 -0.785308
v 0.361438 -1.000000 -0.872587
v 0.667849 -1.000000 0.667849
v 0.000000 -1.000000 -0.944482
v 0.785308 -1.000000 0.524726
v 0.785308 -1.000000 -0.524726
v 0.944482 -1.000000 0.000000
v 0.926334 -1.000000 0.184259
v 0.926334 -1.000000 -0.184259
v 0.872587 -1.000000 0.361438
v 0.872587 -1.000000 -0.361438
v 0.667849 -1.000000 -0.667849
v -0.944482 -1.000000 0.000000
v -0.926334 -1.000000 0.184259
v -0.926334 -1.000000 -0.184259
v -0.785308 -1.000000 0.524726
v -0.785308 -1.000000 -0.524726
v -0.667849 -1.000000 0.667849
v -0.872587 -1.000000 0.361438
v -0.872587 -1.000000 -0.361438
v -0.524726 -1.000000 0.785308
v -0.184259 -1.000000 0.926334
v -0.361438 -1.000000 0.872587
v 0.184259 -1.000000 0.926334
v 0.524726 -1.000000 0.785308
v 0.361438 -1.000000 0.872587
v 0.000000 -1.000000 0.944482
vn -0.0000 1.0000 -0.0000
vn -0.0000 -0.0000 1.0000
vn -1.0000 -0.0000 -0.0000
vn -0.0000 -1.0000 -0.0000
vn 1.0000 -0.0000 -0.0000
vn -0.0000 -0.0000 -1.0000
vn -0.0980 -0.0000 0.9952
vn -0.2903 -0.0000 0.9569
vn -0.4714 -0.0000 0.8819
vn -0.6344 -0.0000 0.7730
vn -0.7730 -0.0000 0.6344
vn -0.8819 -0.0000 0.4714
vn -0.9569 -0.0000 0.2903
vn -0.9952 -0.0000 0.0980
vn -0.9952 -0.0000 -0.0980
vn -0.9569 -0.0000 -0.2903
vn -0.8819 -0.0000 -0.4714
vn -0.7730 -0.0000 -0.6344
vn -0.6344 -0.0000 -0.7730
vn -0.4714 -0.0000 -0.8819
vn -0.2903 -0.0000 -0.9569
vn -0.0980 -0.0000 -0.9952
vn 0.0980 -0.0000 -0.9952
vn 0.2903 -0.0000 -0.9569
vn 0.4714 -0.0000 -0.8819
vn 0.6344 -0.0000 -0.7730
vn 0.7730 -0.0000 -0.6344
vn 0.8819 -0.0000 -0.4714
vn 0.9569 -0.0000 -0.2903
vn 0.9952 -0.0000 -0.0980
vn 0.9952 -0.0000 0.0980
vn 0.9569 -0.0000 0.2903
vn 0.8819 -0.0000 0.4714
vn 0.7730 -0.0000 0.6344
vn 0.6344 -0.0000 0.7730
vn 0.4714 -0.0000 0.8819
vn 0.2903 -0.0000 0.9569
vn 0.0980 -0.0000 0.9952
vt 0.833481 0.708481
vt 0.875000 0.750000
vt 0.625000 0.750000
vt 0.666519 0.708481
vt 0.684409 0.723163
vt 0.704820 0.734073
vt 0.726968 0.740792
vt 0.750000 0.743060
vt 0.773032 0.740792
vt 0.795180 0.734073
vt 0.815591 0.723163
vt 0.625000 0.500000
vt 0.875000 0.500000
vt 0.848164 0.690591
vt 0.859073 0.670180
vt 0.865792 0.648032
vt 0.868060 0.625000
vt 0.865792 0.601968
vt 0.859073 0.579820
vt 0.848163 0.559409
vt 0.833481 0.541519
vt 0.815591 0.526837
vt 0.795180 0.515927
vt 0.773032 0.509208
vt 0.750000 0.506940
vt 0.726968 0.509208
vt 0.704820 0.515927
vt 0.684409 0.526837
vt 0.666519 0.541519
vt 0.651837 0.559409
vt 0.640927 0.579820
vt 0.634208 0.601968
vt 0.631940 0.625000
vt 0.634208 0.648032
vt 0.640927 0.670180
vt 0.651836 0.690591
vt 0.375000 0.750000
vt 0.625000 1.000000
vt 0.375000 1.000000
vt 0.375000 0.000000
vt 0.625000 0.000000
vt 0.625000 0.250000
vt 0.375000 0.250000
vt 0.125000 0.500000
vt 0.375000 0.500000
vt 0.333481 0.541519
vt 0.315591 0.526837
vt 0.295180 0.515927
vt 0.273032 0.509208
vt 0.250000 0.506940
vt 0.226968 0.509208
vt 0.204820 0.515927
vt 0.184409 0.526837
vt 0.166519 0.541519
vt 0.125000 0.750000
vt 0.151836 0.559409
vt 0.140927 0.579820
vt 0.134208 0.601968
vt 0.131940 0.625000
vt 0.134208 0.648032
vt 0.140927 0.670180
vt 0.151836 0.690591
vt 0.166519 0.708481
vt 0.184409 0.723163
vt 0.204820 0.734073
vt 0.226968 0.740792
vt 0.250000 0.743060
vt 0.273032 0.740792
vt 0.295180 0.734073
vt 0.315591 0.723163
vt 0.333481 0.708481
vt 0.348164 0.690591
vt 0.359073 0.670180
vt 0.365792 0.648032
vt 0.368060 0.625000
vt 0.365792 0.601968
vt 0.359073 0.579820
vt 0.348163 0.559409
vt 0.000000 0.000000
s 0
usemtl Material
f 14/1/1 7/2/1 3/3/1 40/4/1 30/5/1 31/6/1 29/7/1 32/8/1 27/9/1 28/10/1 26/11/1
f 3/3/1 1/12/1 5/13/1 7/2/1 14/1/1 12/14/1 15/15/1 11/16/1 9/17/1 10/18/1 16/19/1 13/20/1 25/21/1 17/22/1 19/23/1 18/24/1 24/25/1 20/26/1 23/27/1 22/28/1 21/29/1 34/30/1 39/31/1 37/32/1 35/33/1 36/34/1 38/35/1 33/36/1 40/4/1
f 4/37/2 3/3/2 7/38/2 8/39/2
f 8/40/3 7/41/3 5/42/3 6/43/3
f 6/44/4 2/45/4 57/46/4 46/47/4 47/48/4 45/49/4 49/50/4 43/51/4 44/52/4 42/53/4 41/54/4
f 57/46/4 2/45/4 4/37/4 8/55/4 6/44/4 41/54/4 62/56/4 65/57/4 60/58/4 58/59/4 59/60/4 64/61/4 61/62/4 63/63/4 66/64/4 68/65/4 67/66/4 72/67/4 69/68/4 71/69/4 70/70/4 48/71/4 50/72/4 55/73/4 53/74/4 52/75/4 54/76/4 56/77/4 51/78/4
f 2/45/5 1/12/5 3/3/5 4/37/5
f 6/43/6 5/42/6 1/12/6 2/45/6
f 45/79/7 20/79/7 24/79/7 49/79/7
f 47/79/8 23/79/8 20/79/8 45/79/8
f 46/79/9 22/79/9 23/79/9 47/79/9
f 57/79/10 21/79/10 22/79/10 46/79/10
f 34/79/11 21/79/11 57/79/11 51/79/11
f 39/79/12 34/79/12 51/79/12 56/79/12
f 37/79/13 39/79/13 56/79/13 54/79/13
f 35/79/14 37/79/14 54/79/14 52/79/14
f 36/79/15 35/79/15 52/79/15 53/79/15
f 38/79/16 36/79/16 53/79/16 55/79/16
f 33/79/17 38/79/17 55/79/17 50/79/17
f 40/79/18 33/79/18 50/79/18 48/79/18
f 30/79/19 40/79/19 48/79/19 70/79/19
f 31/79/20 30/79/20 70/79/20 71/79/20
f 29/79/21 31/79/21 71/79/21 69/79/21
f 32/79/22 29/79/22 69/79/22 72/79/22
f 27/79/23 32/79/23 72/79/23 67/79/23
f 28/79/24 27/79/24 67/79/24 68/79/24
f 26/79/25 28/79/25 68/79/25 66/79/25
f 14/79/26 26/79/26 66/79/26 63/79/26
f 61/79/27 12/79/27 14/79/27 63/79/27
f 64/79/28 15/79/28 12/79/28 61/79/28
f 59/79/29 11/79/29 15/79/29 64/79/29
f 58/79/30 9/79/30 11/79/30 59/79/30
f 60/79/31 10/79/31 9/79/31 58/79/31
f 65/79/32 16/79/32 10/79/32 60/79/32
f 62/79/33 13/79/33 16/79/33 65/79/33
f 41/79/34 25/79/34 13/79/34 62/79/34
f 42/79/35 17/79/35 25/79/35 41/79/35
f 44/79/36 19/79/36 17/79/36 42/79/36
f 43/79/37 18/79/37 19/79/37 44/79/37
f 49/79/38 24/79/38 18/79/38 43/79/38
